<svg xmlns="http://www.w3.org/2000/svg" version="1.1" xmlns:xlink="http://www.w3.org/1999/xlink" xmlns:svgjs="http://svgjs.dev/svgjs" width="1500" height="900" preserveAspectRatio="none" viewBox="0 0 1500 900"><g mask="url(&quot;#SvgjsMask1033&quot;)" fill="none"><rect width="1500" height="900" x="0" y="0" fill="rgba(0, 0, 0, 1)"></rect><path d="M68 900L968 0L1163 0L263 900z" fill="url(&quot;#SvgjsLinearGradient1034&quot;)"></path><path d="M515 900L1415 0L1931 0L1031 900z" fill="url(&quot;#SvgjsLinearGradient1034&quot;)"></path><path d="M1474 900L574 0L170.5 0L1070.5 900z" fill="url(&quot;#SvgjsLinearGradient1035&quot;)"></path><path d="M938 900L38 0L-94 0L806 900z" fill="url(&quot;#SvgjsLinearGradient1035&quot;)"></path><path d="M703.6550679738642 900L1500 103.65506797386422L1500 900z" fill="url(&quot;#SvgjsLinearGradient1034&quot;)"></path><path d="M0 900L796.3449320261358 900L 0 103.65506797386422z" fill="url(&quot;#SvgjsLinearGradient1035&quot;)"></path></g><defs><mask id="SvgjsMask1033"><rect width="1500" height="900" fill="#ffffff"></rect></mask><linearGradient x1="0%" y1="100%" x2="100%" y2="0%" id="SvgjsLinearGradient1034"><stop stop-color="rgba(37, 47, 55, 0.83)" offset="0"></stop><stop stop-opacity="0" stop-color="rgba(37, 47, 55, 0.83)" offset="0.66"></stop></linearGradient><linearGradient x1="100%" y1="100%" x2="0%" y2="0%" id="SvgjsLinearGradient1035"><stop stop-color="rgba(37, 47, 55, 0.83)" offset="0"></stop><stop stop-opacity="0" stop-color="rgba(37, 47, 55, 0.83)" offset="0.66"></stop></linearGradient></defs></svg>